# Blender 5.0.1
# www.blender.org
mtllib BancaConRespaldo.mtl
o Cube.010
v 0.928883 -0.354856 -2.492525
v 1.022119 -0.304067 -2.492525
v 0.928883 -0.354856 -2.636855
v 1.022119 -0.304067 -2.636855
v 0.512838 0.408888 -2.492525
v 0.504735 0.429163 -2.496036
v 0.606074 0.459678 -2.492525
v 0.593435 0.477482 -2.496036
v 0.504735 0.429163 -2.633345
v 0.512838 0.408888 -2.636855
v 0.606074 0.459678 -2.636855
v 0.593435 0.477482 -2.633345
vn 0.4784 -0.8782 -0.0000
vn -0.9286 -0.3712 -0.0000
vn -0.0765 0.1404 0.9871
vn 0.8154 0.5789 -0.0000
vn -0.0765 0.1404 -0.9871
vn -0.8782 -0.4784 -0.0000
vn -0.4784 0.8782 -0.0000
vn -0.0000 -0.0000 1.0000
vn 0.8782 0.4784 -0.0000
vn -0.0000 -0.0000 -1.0000
vt 0.375000 0.500000
vt 0.625000 0.500000
vt 0.625000 0.750000
vt 0.375000 0.750000
vt 0.375000 0.254054
vt 0.375000 0.000000
vt 0.381080 0.006080
vt 0.381080 0.243920
vt 0.625000 0.000000
vt 0.618919 0.006080
vt 0.625000 0.254054
vt 0.618919 0.243920
vt 0.131080 0.500000
vt 0.131080 0.750000
vt 0.625000 0.993919
vt 0.375000 0.993920
vt 0.868920 0.500000
vt 0.868920 0.750000
s 0
usemtl Material.001
f 3/1/1 4/2/1 2/3/1 1/4/1
f 10/5/2 5/6/2 6/7/2 9/8/2
f 5/6/3 7/9/3 8/10/3 6/7/3
f 7/9/4 11/11/4 12/12/4 8/10/4
f 11/11/5 10/5/5 9/8/5 12/12/5
f 10/13/6 3/1/6 1/4/6 5/14/6
f 6/7/7 8/10/7 12/12/7 9/8/7
f 1/4/8 2/3/8 7/15/8 5/16/8
f 4/2/9 11/17/9 7/18/9 2/3/9
f 10/5/10 11/11/10 4/2/10 3/1/10
o Cube.009
v -0.799875 0.388866 -2.495038
v -0.799875 0.495038 -2.495038
v -0.799875 0.388866 -2.639368
v -0.799875 0.495038 -2.639368
v 0.611955 0.393103 -2.500799
v 0.555602 0.388866 -2.495038
v 0.555602 0.495038 -2.495038
v 0.611955 0.490800 -2.500799
v 0.611955 0.393103 -2.633607
v 0.555602 0.388866 -2.639368
v 0.611955 0.490800 -2.633607
v 0.555602 0.495038 -2.639368
vn -1.0000 -0.0000 -0.0000
vn 0.1017 -0.0000 -0.9948
vn 0.0750 -0.9972 -0.0000
vn 0.0750 0.9972 -0.0000
vn 0.1017 -0.0000 0.9948
vn -0.0000 -1.0000 -0.0000
vn 1.0000 -0.0000 -0.0000
vn -0.0000 -0.0000 1.0000
vn -0.0000 1.0000 -0.0000
vn -0.0000 -0.0000 -1.0000
vt 0.375000 0.000000
vt 0.625000 0.000000
vt 0.625000 0.250000
vt 0.375000 0.250000
vt 0.615021 0.509979
vt 0.384979 0.509979
vt 0.370011 0.495011
vt 0.629989 0.495011
vt 0.370011 0.754989
vt 0.384979 0.740021
vt 0.629989 0.754989
vt 0.615021 0.740021
vt 0.125000 0.500000
vt 0.125000 0.750000
vt 0.625000 1.000000
vt 0.375000 1.000000
vt 0.875000 0.500000
vt 0.875000 0.750000
s 0
usemtl Material.001
f 13/19/11 14/20/11 16/21/11 15/22/11
f 23/23/12 21/24/12 22/25/12 24/26/12
f 18/27/13 22/25/13 21/24/13 17/28/13
f 24/26/14 19/29/14 20/30/14 23/23/14
f 19/29/15 18/27/15 17/28/15 20/30/15
f 15/31/16 22/25/16 18/27/16 13/32/16
f 21/24/17 23/23/17 20/30/17 17/28/17
f 18/27/18 19/29/18 14/33/18 13/34/18
f 24/26/19 16/35/19 14/36/19 19/29/19
f 15/22/20 16/21/20 24/26/20 22/25/20
o Cube.008
v 0.929840 -0.273969 2.728381
v 1.023076 -0.223179 2.728381
v 0.929840 -0.273969 2.584052
v 1.023076 -0.223179 2.584052
v 0.513796 0.489776 2.728381
v 0.505692 0.510050 2.724871
v 0.607032 0.540565 2.728381
v 0.594393 0.558369 2.724871
v 0.505692 0.510050 2.587562
v 0.513796 0.489776 2.584052
v 0.607032 0.540565 2.584052
v 0.594393 0.558369 2.587562
vn 0.4784 -0.8782 -0.0000
vn -0.9286 -0.3712 -0.0000
vn -0.0765 0.1404 0.9871
vn 0.8154 0.5789 -0.0000
vn -0.0765 0.1404 -0.9871
vn -0.8782 -0.4784 -0.0000
vn -0.4784 0.8782 -0.0000
vn -0.0000 -0.0000 1.0000
vn 0.8782 0.4784 -0.0000
vn -0.0000 -0.0000 -1.0000
vt 0.375000 0.500000
vt 0.625000 0.500000
vt 0.625000 0.750000
vt 0.375000 0.750000
vt 0.375000 0.254054
vt 0.375000 0.000000
vt 0.381080 0.006080
vt 0.381080 0.243920
vt 0.625000 0.000000
vt 0.618919 0.006080
vt 0.625000 0.254054
vt 0.618919 0.243920
vt 0.131080 0.500000
vt 0.131080 0.750000
vt 0.625000 0.993919
vt 0.375000 0.993920
vt 0.868920 0.500000
vt 0.868920 0.750000
s 0
usemtl Material.001
f 27/37/21 28/38/21 26/39/21 25/40/21
f 34/41/22 29/42/22 30/43/22 33/44/22
f 29/42/23 31/45/23 32/46/23 30/43/23
f 31/45/24 35/47/24 36/48/24 32/46/24
f 35/47/25 34/41/25 33/44/25 36/48/25
f 34/49/26 27/37/26 25/40/26 29/50/26
f 30/43/27 32/46/27 36/48/27 33/44/27
f 25/40/28 26/39/28 31/51/28 29/52/28
f 28/38/29 35/53/29 31/54/29 26/39/29
f 34/41/30 35/47/30 28/38/30 27/37/30
o Cube.007
v -0.825085 0.447434 2.733573
v -0.825085 0.553606 2.733573
v -0.825085 0.447434 2.589243
v -0.825085 0.553606 2.589243
v 0.586746 0.451672 2.727812
v 0.530393 0.447434 2.733573
v 0.530393 0.553606 2.733573
v 0.586746 0.549368 2.727812
v 0.586746 0.451672 2.595004
v 0.530393 0.447434 2.589243
v 0.586746 0.549368 2.595004
v 0.530393 0.553606 2.589243
vn -1.0000 -0.0000 -0.0000
vn 0.1017 -0.0000 -0.9948
vn 0.0750 -0.9972 -0.0000
vn 0.0750 0.9972 -0.0000
vn 0.1017 -0.0000 0.9948
vn -0.0000 -1.0000 -0.0000
vn 1.0000 -0.0000 -0.0000
vn -0.0000 -0.0000 1.0000
vn -0.0000 1.0000 -0.0000
vn -0.0000 -0.0000 -1.0000
vt 0.375000 0.000000
vt 0.625000 0.000000
vt 0.625000 0.250000
vt 0.375000 0.250000
vt 0.615021 0.509979
vt 0.384979 0.509979
vt 0.370011 0.495011
vt 0.629989 0.495011
vt 0.370011 0.754989
vt 0.384979 0.740021
vt 0.629989 0.754989
vt 0.615021 0.740021
vt 0.125000 0.500000
vt 0.125000 0.750000
vt 0.625000 1.000000
vt 0.375000 1.000000
vt 0.875000 0.500000
vt 0.875000 0.750000
s 0
usemtl Material.001
f 37/55/31 38/56/31 40/57/31 39/58/31
f 47/59/32 45/60/32 46/61/32 48/62/32
f 42/63/33 46/61/33 45/60/33 41/64/33
f 48/62/34 43/65/34 44/66/34 47/59/34
f 43/65/35 42/63/35 41/64/35 44/66/35
f 39/67/36 46/61/36 42/63/36 37/68/36
f 45/60/37 47/59/37 44/66/37 41/64/37
f 42/63/38 43/65/38 38/69/38 37/70/38
f 48/62/39 40/71/39 38/72/39 43/65/39
f 39/58/40 40/57/40 48/62/40 46/61/40
o Cube.006
v -0.498541 -1.501882 -1.900035
v -0.498541 -0.287768 -1.900035
v -0.498541 -1.501882 -2.286534
v -0.498541 -0.287768 -2.286534
v 0.913290 -1.501882 -1.900035
v 0.913290 -0.287768 -1.900035
v 0.913290 -1.501882 -2.286534
v 0.913290 -0.287768 -2.286534
vn -1.0000 -0.0000 -0.0000
vn -0.0000 -0.0000 -1.0000
vn 1.0000 -0.0000 -0.0000
vn -0.0000 -0.0000 1.0000
vn -0.0000 -1.0000 -0.0000
vn -0.0000 1.0000 -0.0000
vt 0.375000 0.000000
vt 0.625000 0.000000
vt 0.625000 0.250000
vt 0.375000 0.250000
vt 0.625000 0.500000
vt 0.375000 0.500000
vt 0.625000 0.750000
vt 0.375000 0.750000
vt 0.625000 1.000000
vt 0.375000 1.000000
vt 0.125000 0.500000
vt 0.125000 0.750000
vt 0.875000 0.500000
vt 0.875000 0.750000
s 0
usemtl Material.002
f 49/73/41 50/74/41 52/75/41 51/76/41
f 51/76/42 52/75/42 56/77/42 55/78/42
f 55/78/43 56/77/43 54/79/43 53/80/43
f 53/80/44 54/79/44 50/81/44 49/82/44
f 51/83/45 55/78/45 53/80/45 49/84/45
f 56/77/46 52/85/46 50/86/46 54/79/46
o Cube.005
v -0.461746 -1.576522 2.390344
v -0.461746 -0.410141 2.390344
v -0.461746 -1.576522 2.003845
v -0.461746 -0.410141 2.003845
v 0.950085 -1.576522 2.390344
v 0.950085 -0.410141 2.390344
v 0.950085 -1.576522 2.003845
v 0.950085 -0.410141 2.003845
vn -1.0000 -0.0000 -0.0000
vn -0.0000 -0.0000 -1.0000
vn 1.0000 -0.0000 -0.0000
vn -0.0000 -0.0000 1.0000
vn -0.0000 -1.0000 -0.0000
vn -0.0000 1.0000 -0.0000
vt 0.375000 0.000000
vt 0.625000 0.000000
vt 0.625000 0.250000
vt 0.375000 0.250000
vt 0.625000 0.500000
vt 0.375000 0.500000
vt 0.625000 0.750000
vt 0.375000 0.750000
vt 0.625000 1.000000
vt 0.375000 1.000000
vt 0.125000 0.500000
vt 0.125000 0.750000
vt 0.875000 0.500000
vt 0.875000 0.750000
s 0
usemtl Material.002
f 57/87/47 58/88/47 60/89/47 59/90/47
f 59/90/48 60/89/48 64/91/48 63/92/48
f 63/92/49 64/91/49 62/93/49 61/94/49
f 61/94/50 62/93/50 58/95/50 57/96/50
f 59/97/51 63/92/51 61/94/51 57/98/51
f 64/91/52 60/99/52 58/100/52 62/93/52
o Cube.004
v -0.866382 1.346071 -2.769778
v -1.176177 1.231681 -2.769778
v -0.866382 1.346071 2.825446
v -1.176177 1.231681 2.825446
v -0.277911 -0.247643 -2.769778
v -0.258023 -0.361138 -2.419792
v -0.529061 -0.461218 -2.419792
v -0.587705 -0.362033 -2.769778
v -0.258023 -0.361138 2.475460
v -0.277911 -0.247643 2.825446
v -0.529061 -0.461218 2.475460
v -0.587705 -0.362033 2.825446
vn -0.3464 0.9381 -0.0000
vn 0.3295 -0.8924 -0.3081
vn 0.3295 -0.8924 0.3081
vn 0.9850 0.1726 -0.0000
vn -0.8608 -0.5089 -0.0000
vn -0.0000 -0.0000 -1.0000
vn 0.3464 -0.9381 -0.0000
vn 0.9381 0.3464 -0.0000
vn -0.9381 -0.3464 -0.0000
vn -0.0000 -0.0000 1.0000
vt 0.375000 0.000000
vt 0.625000 0.000000
vt 0.625000 0.250000
vt 0.375000 0.250000
vt 0.609362 0.515638
vt 0.390638 0.515638
vt 0.367181 0.492181
vt 0.632819 0.492181
vt 0.632819 0.757819
vt 0.367181 0.757819
vt 0.390638 0.734362
vt 0.609362 0.734362
vt 0.875000 0.500000
vt 0.875000 0.750000
vt 0.125000 0.500000
vt 0.125000 0.750000
vt 0.625000 1.000000
vt 0.375000 1.000000
s 0
usemtl Material.002
f 68/101/53 67/102/53 65/103/53 66/104/53
f 70/105/54 71/106/54 72/107/54 69/108/54
f 74/109/55 76/110/55 75/111/55 73/112/55
f 69/108/56 74/109/56 73/112/56 70/105/56
f 76/110/57 72/107/57 71/106/57 75/111/57
f 66/104/58 65/103/58 69/108/58 72/107/58
f 71/106/59 70/105/59 73/112/59 75/111/59
f 69/108/60 65/113/60 67/114/60 74/109/60
f 66/115/61 72/107/61 76/110/61 68/116/61
f 76/110/62 74/109/62 67/117/62 68/118/62
o Cube.003
v 1.079605 -0.118703 -2.766338
v 1.079605 -0.443512 -2.766338
v 1.079605 -0.118703 2.828886
v 1.079605 -0.443512 2.828886
v -0.603999 -0.118703 -2.766338
v -0.603999 -0.443512 -2.766338
v -0.603999 -0.118703 2.828886
v -0.603999 -0.443512 2.828886
vn -0.0000 1.0000 -0.0000
vn -0.0000 -0.0000 1.0000
vn -1.0000 -0.0000 -0.0000
vn -0.0000 -1.0000 -0.0000
vn 1.0000 -0.0000 -0.0000
vn -0.0000 -0.0000 -1.0000
vt 0.625000 0.500000
vt 0.875000 0.500000
vt 0.875000 0.750000
vt 0.625000 0.750000
vt 0.375000 0.750000
vt 0.625000 1.000000
vt 0.375000 1.000000
vt 0.375000 0.000000
vt 0.625000 0.000000
vt 0.625000 0.250000
vt 0.375000 0.250000
vt 0.125000 0.500000
vt 0.375000 0.500000
vt 0.125000 0.750000
s 0
usemtl Material.002
f 77/119/63 81/120/63 83/121/63 79/122/63
f 80/123/64 79/122/64 83/124/64 84/125/64
f 84/126/65 83/127/65 81/128/65 82/129/65
f 82/130/66 78/131/66 80/123/66 84/132/66
f 78/131/67 77/119/67 79/122/67 80/123/67
f 82/129/68 81/128/68 77/119/68 78/131/68
